# xmcd CD database file
#
# Track frame offsets:
#	150
#	19266
#	47289
#	67814
#	90211
#	112208
#	133649
#	143175
#	170594
#
# Disc length: 2431 seconds
#
# Revision: 1
# Processed by: cddbd v1.5.2PL0 Copyright (c) Steve Scherf et al.
# Submitted via: CDex 1.70beta2
#
DISCID=71097d09
DTITLE=Oscar Peterson - Exclusively for my friends, [CD4 of 4)
DYEAR=1900
DGENRE=Jazz
TTITLE0=Oscar Peterson - Someone to watch over
TTITLE1=Oscar Peterson - Perdido
TTITLE2=Oscar Peterson - Body and soul
TTITLE3=Oscar Peterson - Who can I turn to ?
TTITLE4=Oscar Peterson - Bye bye, blackbird
TTITLE5=Oscar Peterson - I should care
TTITLE6=Oscar Peterson - Lulu's back in town
TTITLE7=Oscar Peterson - Little girl blue
TTITLE8=Oscar Peterson - Take the 'A' train
EXTD=
EXTT0=
EXTT1=
EXTT2=
EXTT3=
EXTT4=
EXTT5=
EXTT6=
EXTT7=
EXTT8=
PLAYORDER=
